# xmcd
#
# Track frame offsets: 
#        150
#        8903
#        19974
#        38065
#        50245
#        66572
#        74387
#        88680
#        106880
#        125841
#
# Disc length: 1900 seconds
#
# Revision: 0
# Processed by: cddbd v1.5.2PL0 Copyright (c) Steve Scherf et al.
# Submitted via: ExactAudioCopyFreeDBPlugin 1.0
#
DISCID=92076a0a
DTITLE=Joe Swank and The Zen Pirates - Hank Williams Died For My Sins
DYEAR=2009
DGENRE=Country
TTITLE0=Hank Williams Died For Your Sins
TTITLE1=Fool For You
TTITLE2=Same Ol' Feeling
TTITLE3=Just Tell Her I Loved Her
TTITLE4=Wait Until I Get My Hands On You
TTITLE5=Tomorrow's Just A Train-Wreck Away
TTITLE6=Sittin' Here Drinkin' A Beer
TTITLE7=Better Than Bein' Alone
TTITLE8=Hank Williams Died For My Sins
TTITLE9=Strutter
EXTD=
EXTT0=
EXTT1=
EXTT2=
EXTT3=
EXTT4=
EXTT5=
EXTT6=
EXTT7=
EXTT8=
EXTT9=
PLAYORDER=
